<svg xmlns:dc="http://purl.org/dc/elements/1.1/" xmlns:cc="http://creativecommons.org/ns#" xmlns:rdf="http://www.w3.org/1999/02/22-rdf-syntax-ns#" xmlns:svg="http://www.w3.org/2000/svg" xmlns="http://www.w3.org/2000/svg" xmlns:sodipodi="http://sodipodi.sourceforge.net/DTD/sodipodi-0.dtd" xmlns:inkscape="http://www.inkscape.org/namespaces/inkscape" viewBox="0 0 12.7 15.875" version="1.1" x="0px" y="0px"><g transform="translate(0,-284.29999)"><g transform="translate(186.06498,1.64303)"><g><path style="" d="m -181.65153,287.59001 a 0.33931553,0.33931553 0 0 0 -0.3297,0.25838 l -0.3669,1.49396 h -0.60616 l -0.17621,-0.84129 a 0.33931553,0.33931553 0 0 0 -0.33176,-0.26975 h -0.47543 a 0.33931553,0.33931553 0 0 0 -0.33229,0.26975 l -0.0284,0.13384 -1.16065,-0.22944 a 0.06751597,0.06751597 0 0 0 -0.0289,0.13177 l 1.15083,0.28422 -0.10903,0.5209 h -0.51057 a 0.33931553,0.33931553 0 0 0 -0.32554,0.43667 l 0.0103,0.0134 a 0.88634558,0.88634558 0 0 0 0.84904,0.63149 h 9.75032 v -0.10387 a 0.37355674,0.37355674 0 0 1 0.24649,-0.35089 l -0.005,-5.3e-4 a 0.81866099,0.81866099 0 0 0 0.53382,-0.86351 l -2.01022,0.13074 -0.0879,-0.41444 1.21389,-0.29973 a 0.06625765,0.06625765 0 0 0 -0.0295,-0.12919 l -1.2242,0.24236 -0.0279,-0.13384 a 0.33931553,0.33931553 0 0 0 -0.33176,-0.26975 h -0.47543 a 0.33931553,0.33931553 0 0 0 -0.3328,0.26975 l -0.17415,0.83044 -0.16793,0.0109 h -1.06145 l -0.20773,-0.85524 a 0.33931553,0.33931553 0 0 0 -0.32969,-0.25942 h -0.23823 l -0.0775,-0.36793 a 0.33931553,0.33931553 0 0 0 -0.33226,-0.26975 z m 6.81458,1.90686 a 0.10395644,0.10395644 0 0 1 0.10594,0.1049 0.10395644,0.10395644 0 1 1 -0.20775,0 0.10395644,0.10395644 0 0 1 0.10181,-0.1049 z" fill="#000000" stroke="none"/></g></g></g><text x="0" y="27.7" fill="#000000" font-size="5px" font-weight="bold" font-family="'Helvetica Neue', Helvetica, Arial-Unicode, Arial, Sans-serif">Created by Phạm Thanh Lộc</text><text x="0" y="32.7" fill="#000000" font-size="5px" font-weight="bold" font-family="'Helvetica Neue', Helvetica, Arial-Unicode, Arial, Sans-serif">from the Noun Project</text></svg>